<?xml version="1.0" encoding="utf-8"?>
<!-- Generator: Adobe Illustrator 24.2.1, SVG Export Plug-In . SVG Version: 6.00 Build 0)  -->
<svg version="1.1" id="Livello_1" xmlns="http://www.w3.org/2000/svg" xmlns:xlink="http://www.w3.org/1999/xlink" x="0px" y="0px"
	 viewBox="0 0 1400 600" style="enable-background:new 0 0 1400 600;" xml:space="preserve">
<style type="text/css">
	.st0{fill-rule:evenodd;clip-rule:evenodd;fill:#AE986E;}
	.st1{fill:#3F2B30;}
</style>
<g>
	<g>
		<path class="st0" d="M203.85,113.55c-1.4-6.97-1.61-14.12-1.49-21.23c0.24-14.31,1.96-29.11,9.29-41.39
			c7.33-12.29,21.49-21.42,35.61-19.07c10.49,1.75,19.19,9.38,25.13,18.21c4.07,6.04,7.2,13.35,5.73,20.48
			c11.26-2.47,23.93-4.22,33.56,2.13c6,3.96,9.77,8.8,12.11,17.02c2.54,8.9,2.06,14.4-0.16,22.04c-8.66,29.83-73.79,46.4-105.75,48
			C217.88,159.75,205.06,119.55,203.85,113.55z"/>
	</g>
	<g>
		<path class="st1" d="M59.03,568.8c9.23-0.15,18.39-2.11,26.59-6.29c8.2-4.15,15.42-10.09,21.59-16.89
			c6.2-6.8,11.46-14.43,16.03-22.43c4.56-8.01,8.43-16.41,11.74-25.01c3.3-8.61,6.05-17.44,8.21-26.4
			c2.15-8.96,3.78-18.07,4.39-27.26c0.31-4.59,0.41-9.22-0.92-13.6c-1.28-4.38-3.42-8.5-5.52-12.6c-4.27-8.17-9.02-16.1-13.98-23.89
			c-9.93-15.57-20.81-30.51-31.69-45.45l-16.34-22.4c-2.7-3.75-5.4-7.51-7.93-11.39c-2.49-3.88-5.02-7.89-6.2-12.5
			c-1.12-4.64-0.38-9.47,0.96-13.9c1.35-4.47,3.34-8.7,5.49-12.8c4.36-8.19,9.35-15.97,13.73-24.09c4.42-8.1,8.35-16.47,12.72-24.63
			c2.19-4.08,4.48-8.12,7.14-11.94c2.65-3.82,5.71-7.36,9.03-10.6c3.32-3.25,6.83-6.26,10.23-9.37c3.42-3.1,6.85-6.21,10.35-9.23
			c6.98-6.08,14.29-11.77,21.69-17.31l11.1-8.3c3.69-2.78,7.39-5.54,10.92-8.49c1.76-1.48,3.48-3.01,5.02-4.68
			c1.55-1.66,2.86-3.57,4.43-5.31c1.56-1.73,3.24-3.4,5.27-4.68c1.01-0.62,2.14-1.17,3.42-1.29c1.3-0.14,2.6,0.37,3.55,1.18
			c1.91,1.62,2.86,4.28,2.22,6.75c-0.34,1.23-1.09,2.27-1.93,3.13c-0.85,0.86-1.8,1.58-2.79,2.22c-1.99,1.27-4.12,2.25-6.31,3.08
			c-0.55,0.2-1.11,0.4-1.72,0.53c-0.31,0.06-0.63,0.12-1,0.09c-0.39-0.02-0.75-0.21-0.97-0.3c-0.25-0.11-0.61-0.23-0.91-0.57
			c-0.31-0.34-0.38-0.82-0.34-1.17c0.08-0.72,0.35-1.27,0.63-1.81c1.16-2.1,2.61-3.92,4.2-5.66c1.61-1.68,3.39-3.36,5.71-4.21
			c2.3-0.88,5-0.57,7.08,0.72c1.06,0.64,1.94,1.58,2.55,2.64c0.61,1.06,1,2.2,1.27,3.37c0.53,2.33,0.54,4.78-0.1,7.1
			c-0.65,2.33-1.97,4.36-3.39,6.21c-2.88,3.69-6.21,6.94-9.62,10.08c-3.43,3.12-7.01,6.08-10.67,8.9c-3.66,2.83-7.35,5.6-10.82,8.61
			c-3.47,3-6.74,6.27-9.38,9.99c-1.32,1.86-2.49,3.83-3.41,5.91c-0.92,2.08-1.61,4.26-2.12,6.48c-0.99,4.46-1.16,9.07-0.95,13.65
			c0.21,4.59,0.82,9.16,1.61,13.69c1.6,9.07,3.86,18.04,5.88,27.06c1.02,4.51,2,9.03,2.83,13.59c0.8,4.56,1.53,9.16,1.61,13.84
			c0.01,2.33-0.08,4.72-0.92,7.02c-0.42,1.14-1.12,2.24-2.12,3.03c-1,0.8-2.25,1.21-3.47,1.32c-2.47,0.21-4.81-0.53-6.97-1.45
			c-2.16-0.95-4.17-2.18-6.07-3.55c-3.78-2.76-7.13-6.08-9.9-9.85c-2.79-3.76-4.83-8.1-5.9-12.66c-1.1-4.56-1.27-9.3-0.87-13.94
			c0.41-4.65,1.38-9.22,2.61-13.69c1.24-4.47,2.7-8.87,4.38-13.2c1.72-4.31,3.65-8.56,6.13-12.52c1.24-1.98,2.62-3.88,4.23-5.6
			c1.61-1.72,3.51-3.23,5.69-4.22c2.16-1.03,4.55-1.53,6.91-1.6c2.37-0.08,4.72,0.24,7,0.72c2.28,0.48,4.56,1.08,6.73,2.04
			c2.15,0.95,4.25,2.35,5.61,4.4c1.37,2.06,1.83,4.5,2.02,6.83c0.17,2.35,0.06,4.69-0.12,7.01c-0.2,2.31-0.4,4.61-0.73,6.93
			c-0.17,1.16-0.36,2.31-0.69,3.47c-0.16,0.58-0.36,1.15-0.64,1.72c-0.29,0.55-0.66,1.14-1.31,1.53c-0.66,0.39-1.44,0.38-2.06,0.25
			c-0.63-0.13-1.2-0.36-1.75-0.61c-1.09-0.5-2.09-1.09-3.1-1.62c-2-1.11-4.1-1.91-6.33-2.15c-2.22-0.25-4.48,0.04-6.65,0.66
			c-2.17,0.61-4.22,1.6-6.04,2.92c-3.68,2.63-6.36,6.47-8.4,10.52c-2.05,4.08-3.5,8.47-4.15,12.98c-0.32,2.25-0.41,4.53-0.23,6.78
			c0.21,2.25,0.69,4.49,1.44,6.63c0.75,2.13,1.73,4.22,3.1,5.95c0.34,0.42,0.72,0.82,1.13,1.12c0.4,0.31,0.85,0.47,1.09,0.37
			c0.28-0.08,0.59-0.52,0.8-0.99c0.23-0.47,0.4-1.01,0.55-1.55c0.6-2.18,0.99-4.47,1.48-6.73c0.48-2.27,1.03-4.54,1.77-6.76
			c1.49-4.43,3.55-8.67,6.24-12.5c1.35-1.91,2.86-3.74,4.67-5.28c1.8-1.55,3.91-2.77,6.19-3.48c1.14-0.36,2.31-0.61,3.49-0.74
			c0.59-0.07,1.17-0.11,1.77-0.14c0.6-0.01,1.23-0.06,1.95,0.23c0.35,0.15,0.7,0.43,0.9,0.76c0.21,0.33,0.31,0.68,0.37,1
			c0.12,0.65,0.1,1.27,0.07,1.87c-0.08,1.2-0.29,2.35-0.51,3.5c-0.93,4.56-2.12,9.02-3.09,13.52c-0.49,2.25-0.95,4.51-1.22,6.76
			c-0.11,1.1-0.23,2.3,0.02,3.22c0.06,0.21,0.17,0.39,0.24,0.43c0.06,0.04,0.14,0.06,0.33,0c0.37-0.13,0.79-0.5,1.15-0.88
			c1.45-1.62,2.49-3.71,3.39-5.79c0.89-2.1,1.6-4.28,2.19-6.49c1.16-4.43,1.91-8.99,2.55-13.55c0.65-4.56,1.15-9.15,1.67-13.74
			c0.52-4.59,1.01-9.19,1.73-13.78c0.71-4.59,1.78-9.13,2.99-13.58c2.6-8.85,3.03-18.1,4.56-27.27c0.41-2.29,0.86-4.6,1.82-6.82
			c0.49-1.1,1.17-2.17,2.11-3.01c0.94-0.85,2.09-1.39,3.24-1.74c2.32-0.68,4.67-0.88,7.02-0.89c2.35,0,4.72,0.25,7.01,0.96
			c1.14,0.36,2.27,0.84,3.28,1.56c1.01,0.71,1.87,1.65,2.48,2.72c1.25,2.15,1.56,4.67,1.37,7.03c-0.19,2.39-0.85,4.7-1.85,6.85
			c-1,2.15-2.33,4.17-4.09,5.81c-0.88,0.82-1.87,1.54-2.98,2.07c-1.11,0.53-2.33,0.84-3.55,0.9c-2.45,0.12-4.85-0.57-6.95-1.73
			c-2.09-1.15-3.99-2.92-4.93-5.21c-0.97-2.27-1.13-4.68-1.27-6.98c-0.12-2.32-0.17-4.67,0.1-7.02c0.14-1.18,0.37-2.35,0.77-3.5
			c0.39-1.14,1-2.27,1.85-3.18c0.84-0.92,1.87-1.6,2.9-2.19c1.03-0.59,2.1-1.07,3.17-1.54c2.14-0.93,4.3-1.75,6.47-2.57
			c8.66-3.24,17.3-6.48,25.83-10.01c8.54-3.51,16.97-7.27,25.29-11.26c8.31-4,16.52-8.24,24.34-13.1c3.91-2.43,7.72-5.02,11.33-7.86
			c3.61-2.83,7.03-5.92,10.01-9.38c2.97-3.46,5.51-7.33,6.92-11.64c1.42-4.29,1.74-8.93,1.02-13.4c-0.7-4.48-2.41-8.79-4.92-12.57
			c-2.51-3.77-5.81-7.05-9.74-9.28c-1.96-1.12-4.06-1.98-6.25-2.53c-2.19-0.53-4.46-0.73-6.72-0.69c-4.54,0.09-9.04,1.13-13.33,2.7
			c-4.29,1.57-8.4,3.66-12.22,6.17c-1.9,1.27-3.74,2.63-5.43,4.15c-1.67,1.52-3.28,3.18-4.23,5.12c-0.46,0.96-0.69,2.03-0.41,2.9
			c0.27,0.88,1.12,1.45,2.1,1.6c2.02,0.31,4.17-0.79,5.64-2.33c1.51-1.57,2.46-3.64,3.12-5.79c0.66-2.15,1.02-4.41,1.22-6.67
			c0.36-4.54,0.02-9.14-0.96-13.59c-0.99-4.44-2.62-8.78-5.16-12.53c-2.53-3.75-5.94-6.9-9.89-9.12c-3.95-2.23-8.4-3.51-12.92-3.88
			c-9.06-0.7-18.31,2.08-25.75,7.27c-3.72,2.61-6.99,5.87-9.58,9.61c-2.59,3.74-4.49,7.94-5.71,12.32
			c-2.44,8.83-1.99,18.19-0.68,27.25c1.35,9.1,3.61,18.06,6.26,26.89c2.66,8.83,5.73,17.53,9.05,26.14
			c3.33,8.6,6.89,17.13,10.68,25.54c1.88,4.22,3.92,8.35,5.76,12.63c0.91,2.14,1.69,4.39,2.17,6.7c0.47,2.31,0.68,4.67,0.72,7
			c0.07,4.68-0.37,9.31-0.87,13.91c-0.52,4.6-1.13,9.19-1.76,13.77c-1.26,9.16-2.6,18.3-3.75,27.46c-0.57,4.58-1.11,9.16-1.41,13.75
			c-0.14,2.29-0.21,4.58-0.1,6.85c0.13,2.26,0.44,4.5,1.51,6.4c0.51,0.96,1.16,1.75,2.06,2.23c0.9,0.48,1.99,0.71,3.09,0.85
			c2.22,0.27,4.52,0.25,6.77,0.03c2.25-0.23,4.49-0.66,6.54-1.5c2.03-0.84,3.86-2.2,5.15-3.95c0.32-0.44,0.61-0.89,0.83-1.37
			c0.21-0.46,0.39-0.98,0.37-1.35c-0.01-0.18-0.05-0.26-0.13-0.35c-0.08-0.09-0.26-0.19-0.48-0.26c-0.45-0.15-1.01-0.23-1.57-0.3
			c-2.29-0.25-4.67-0.69-6.89-1.48c-1.12-0.39-2.22-0.87-3.27-1.49c-1.04-0.61-2.04-1.43-2.78-2.47c-0.73-1.04-1.21-2.27-1.27-3.58
			c-0.03-0.65,0.06-1.34,0.35-1.99c0.27-0.66,0.85-1.25,1.5-1.55c1.32-0.59,2.6-0.46,3.79-0.33c1.2,0.16,2.35,0.43,3.48,0.75
			c2.26,0.64,4.47,1.43,6.6,2.45c1.06,0.54,2.12,1.06,3.09,1.99c0.24,0.24,0.47,0.52,0.64,0.9c0.17,0.36,0.25,0.89,0.07,1.35
			c-0.17,0.46-0.51,0.76-0.82,0.97c-0.32,0.21-0.64,0.34-0.96,0.44c-1.27,0.37-2.51,0.33-3.71,0.21c-1.19-0.14-2.36-0.37-3.5-0.7
			c-2.26-0.68-4.53-1.5-6.45-3.16c-0.94-0.84-1.64-1.93-2.16-2.99c-0.53-1.07-0.97-2.1-1.55-3.02c-0.59-0.92-1.29-1.8-2.08-2.55
			c-0.39-0.37-0.81-0.71-1.24-0.95c-0.43-0.26-0.86-0.31-0.92-0.21c-0.16,0.09-0.38,0.62-0.49,1.12c-0.12,0.52-0.19,1.07-0.26,1.63
			c-0.12,1.12-0.2,2.27-0.27,3.42c-0.26,4.61-0.63,9.23-0.85,13.82c-0.23,4.6-0.29,9.2-0.07,13.79c0.23,4.59,0.78,9.14,1.71,13.64
			c0.91,4.5,2.07,8.97,3.16,13.47c2.24,8.97,4.03,18.15,4.55,27.42c0.59,9.26,0.45,18.54-0.05,27.79c-0.25,4.62-0.6,9.24-1.03,13.85
			c-0.44,4.6-0.92,9.25-1.98,13.8c-0.52,2.28-1.23,4.5-1.74,6.71c-0.51,2.21-0.81,4.47-1.01,6.75c-0.38,4.56-0.44,9.18-0.37,13.78
			c0.06,4.61,0.29,9.21,0.55,13.82c0.25,4.61,0.62,9.22,0.66,13.88c0.05,4.57,0.5,9.18,0.85,13.78c0.37,4.61,0.71,9.23,0.89,13.86
			c0.35,9.25,0.18,18.63-1.9,27.76c-1.05,4.55-2.61,9.03-4.98,13.11c-2.34,4.08-5.56,7.71-9.46,10.4c-0.97,0.68-1.98,1.29-3.03,1.86
			c-1.07,0.52-2.14,1.01-3.25,1.42c-2.21,0.82-4.54,1.44-6.94,1.56c-2.39,0.15-4.87-0.21-7.1-1.21c-2.23-0.99-4.17-2.59-5.62-4.51
			c-1.48-1.91-2.53-4.09-3.27-6.34c-0.75-2.25-1.2-4.58-1.44-6.92c-0.49-4.69-0.16-9.4,0.63-14c1.61-9.21,5.11-18.01,9.72-26.08
			c2.31-4.04,4.92-7.91,7.79-11.57c1.42-1.84,2.93-3.62,4.47-5.35l2.34-2.58l1.18-1.29l1.23-1.24c6.58-6.61,14.29-12.02,22.47-16.42
			c8.21-4.37,16.86-7.83,25.7-10.64c8.83-2.83,17.85-5.02,26.92-6.88c18.17-3.64,36.56-5.89,54.98-7.54
			c18.43-1.63,36.9-2.65,55.37-3.37c18.48-0.73,36.96-1.16,55.44-1.46c36.97-0.58,73.93-0.66,110.9-0.75l110.89-0.3
			c37,0.14,73.93,2.33,110.81,4.81c36.88,2.54,73.73,5.52,110.58,8.43c73.69,5.83,147.42,11.34,221.28,14.24
			c73.84,2.97,147.83,3.43,221.64-0.81c0.02,0,0.04,0.01,0.04,0.03c0,0.02-0.01,0.04-0.03,0.04c-73.76,5.24-147.83,5.09-221.71,2.2
			c-73.89-2.85-147.64-8.4-221.34-14.23c-36.85-2.91-73.69-5.89-110.56-8.43c-36.87-2.48-73.78-4.67-110.72-4.81l-110.89,0.29
			c-36.96,0.09-73.92,0.16-110.88,0.74c-18.48,0.3-36.95,0.73-55.41,1.45c-18.46,0.73-36.91,1.74-55.3,3.37
			c-18.39,1.64-36.74,3.89-54.82,7.51c-9.03,1.85-18,4.02-26.77,6.83c-8.77,2.78-17.35,6.22-25.46,10.53
			c-8.09,4.34-15.67,9.67-22.13,16.16l-1.21,1.22l-1.16,1.27l-2.32,2.56c-1.54,1.71-3.01,3.47-4.42,5.28
			c-2.83,3.61-5.4,7.42-7.68,11.4c-4.55,7.95-7.98,16.6-9.56,25.61c-0.78,4.5-1.09,9.09-0.62,13.61c0.46,4.48,1.72,9,4.42,12.54
			c1.34,1.76,3.08,3.19,5.07,4.08c1.99,0.89,4.22,1.23,6.43,1.09c2.22-0.11,4.41-0.69,6.52-1.47c1.06-0.39,2.09-0.86,3.1-1.35
			c0.98-0.53,1.95-1.12,2.87-1.77c3.72-2.56,6.79-6.02,9.04-9.94c2.28-3.92,3.8-8.27,4.83-12.71c2.04-8.93,2.22-18.21,1.87-27.39
			c-0.18-4.6-0.52-9.2-0.89-13.8c-0.35-4.61-0.79-9.21-0.85-13.88c-0.03-4.58-0.41-9.19-0.65-13.81c-0.26-4.62-0.49-9.24-0.54-13.88
			c-0.06-4.64,0-9.27,0.38-13.92c0.2-2.32,0.51-4.65,1.04-6.94c0.53-2.29,1.23-4.49,1.74-6.71c1.04-4.45,1.52-9.02,1.96-13.62
			c0.43-4.59,0.78-9.19,1.03-13.8c0.5-9.21,0.64-18.44,0.06-27.62c-0.52-9.19-2.28-18.24-4.51-27.19
			c-1.09-4.48-2.25-8.96-3.17-13.52c-0.94-4.55-1.5-9.2-1.73-13.84c-0.22-4.64-0.16-9.29,0.07-13.92c0.23-4.64,0.6-9.23,0.86-13.84
			c0.08-1.16,0.15-2.31,0.28-3.49c0.07-0.59,0.14-1.18,0.28-1.79c0.07-0.31,0.16-0.62,0.29-0.94c0.14-0.32,0.33-0.68,0.73-0.98
			c0.42-0.3,0.96-0.33,1.34-0.25c0.39,0.08,0.72,0.22,1.01,0.39c0.58,0.33,1.06,0.73,1.51,1.15c0.89,0.85,1.64,1.78,2.29,2.81
			c0.65,1.03,1.12,2.14,1.62,3.14c0.49,1.01,1.07,1.89,1.86,2.6c1.59,1.4,3.77,2.24,5.91,2.87c1.08,0.31,2.18,0.53,3.28,0.66
			c1.09,0.12,2.21,0.13,3.17-0.15c0.46-0.13,0.87-0.41,0.92-0.59c0.08-0.12-0.05-0.49-0.41-0.84c-0.69-0.68-1.73-1.23-2.72-1.72
			c-2.03-0.97-4.2-1.74-6.38-2.36c-1.09-0.31-2.2-0.57-3.29-0.71c-1.08-0.14-2.22-0.17-3.03,0.21c-0.79,0.35-1.13,1.27-1.09,2.28
			c0.04,1,0.43,2.01,1.03,2.86c1.21,1.71,3.31,2.72,5.4,3.47c2.13,0.75,4.33,1.17,6.63,1.42c0.58,0.08,1.17,0.15,1.82,0.36
			c0.32,0.11,0.68,0.26,1.01,0.59c0.33,0.32,0.51,0.82,0.51,1.22c0.02,0.8-0.24,1.39-0.49,1.98c-0.27,0.58-0.6,1.1-0.96,1.59
			c-1.46,1.97-3.48,3.45-5.71,4.38c-2.24,0.91-4.58,1.35-6.92,1.59c-2.35,0.22-4.7,0.25-7.07-0.04c-1.18-0.16-2.4-0.39-3.55-1
			c-1.17-0.6-2.04-1.69-2.6-2.76c-1.21-2.16-1.54-4.64-1.66-6.96c-0.11-2.35-0.04-4.68,0.1-7c0.3-4.64,0.85-9.24,1.42-13.83
			c1.16-9.18,2.5-18.32,3.76-27.47c0.63-4.58,1.24-9.15,1.76-13.73c0.5-4.58,0.94-9.17,0.87-13.74c-0.03-2.28-0.24-4.55-0.69-6.77
			c-0.45-2.21-1.19-4.36-2.09-6.46c-1.81-4.21-3.86-8.37-5.74-12.6c-3.81-8.44-7.36-16.98-10.71-25.61
			c-3.33-8.63-6.41-17.37-9.08-26.24c-2.65-8.87-4.92-17.88-6.29-27.07c-0.66-4.6-1.11-9.24-1.08-13.9c0-4.66,0.57-9.35,1.79-13.87
			c1.26-4.51,3.21-8.85,5.9-12.71c2.67-3.86,6.05-7.23,9.89-9.92c7.69-5.35,17.18-8.22,26.58-7.49c4.68,0.39,9.32,1.72,13.43,4.04
			c4.11,2.31,7.67,5.6,10.3,9.51c2.65,3.92,4.32,8.39,5.34,12.95c1,4.57,1.35,9.29,0.98,13.96c-0.2,2.34-0.57,4.67-1.27,6.93
			c-0.7,2.25-1.7,4.51-3.42,6.28c-1.68,1.73-4.09,3.07-6.73,2.69c-0.65-0.1-1.3-0.34-1.86-0.75c-0.56-0.41-1.01-1.01-1.22-1.68
			c-0.42-1.36-0.05-2.71,0.47-3.81c1.1-2.23,2.79-3.94,4.52-5.52c1.75-1.57,3.63-2.96,5.57-4.26c3.9-2.56,8.09-4.69,12.47-6.3
			c4.38-1.6,9.01-2.67,13.72-2.77c2.35-0.04,4.73,0.16,7.03,0.73c2.3,0.57,4.51,1.48,6.56,2.65c4.12,2.34,7.54,5.76,10.15,9.67
			c2.61,3.92,4.38,8.39,5.11,13.05c0.74,4.65,0.42,9.49-1.07,13.97c-1.48,4.5-4.12,8.51-7.15,12.04c-3.05,3.55-6.53,6.68-10.18,9.54
			c-3.65,2.87-7.5,5.48-11.44,7.93c-7.88,4.89-16.12,9.15-24.46,13.16c-8.34,4-16.8,7.77-25.36,11.28
			c-8.55,3.54-17.22,6.78-25.87,10.01c-2.16,0.82-4.31,1.64-6.41,2.55c-2.07,0.92-4.21,1.89-5.68,3.45
			c-1.47,1.56-2.04,3.81-2.32,6.02c-0.26,2.24-0.22,4.53-0.1,6.82c0.13,2.28,0.31,4.58,1.17,6.58c0.84,2.02,2.5,3.59,4.43,4.66
			c1.93,1.07,4.14,1.7,6.32,1.59c2.19-0.08,4.2-1.14,5.81-2.66c1.62-1.51,2.88-3.42,3.83-5.45c0.95-2.04,1.58-4.23,1.75-6.46
			c0.17-2.21-0.13-4.49-1.22-6.36c-0.54-0.93-1.27-1.74-2.15-2.36c-0.88-0.62-1.9-1.07-2.96-1.4c-2.13-0.66-4.41-0.91-6.67-0.91
			c-2.26,0.01-4.56,0.22-6.68,0.84c-1.05,0.33-2.03,0.8-2.82,1.5c-0.78,0.71-1.38,1.62-1.83,2.63c-0.89,2.03-1.34,4.29-1.74,6.54
			c-1.52,9.04-1.96,18.42-4.59,27.36c-1.21,4.46-2.27,8.92-2.97,13.47c-0.71,4.54-1.2,9.14-1.72,13.73
			c-0.52,4.59-1.03,9.19-1.68,13.78c-0.65,4.58-1.4,9.17-2.58,13.68c-0.6,2.25-1.33,4.48-2.24,6.64c-0.94,2.15-1.97,4.28-3.6,6.11
			c-0.43,0.44-0.88,0.9-1.6,1.18c-0.35,0.14-0.91,0.17-1.33-0.14c-0.41-0.3-0.56-0.68-0.67-1.01c-0.34-1.34-0.16-2.49-0.06-3.67
			c0.28-2.34,0.75-4.61,1.24-6.87c0.98-4.53,2.18-9,3.09-13.5c0.22-1.12,0.41-2.25,0.49-3.36c0.07-1.07,0.01-2.32-0.67-2.54
			c-0.36-0.16-0.92-0.16-1.47-0.14c-0.56,0.02-1.13,0.07-1.69,0.13c-1.12,0.13-2.22,0.36-3.28,0.69c-2.13,0.67-4.1,1.81-5.81,3.27
			c-1.71,1.45-3.17,3.22-4.49,5.08c-2.62,3.73-4.64,7.89-6.1,12.21c-0.73,2.16-1.26,4.39-1.74,6.64c-0.49,2.25-0.87,4.52-1.5,6.8
			c-0.17,0.57-0.35,1.14-0.62,1.71c-0.28,0.54-0.59,1.21-1.43,1.55c-0.42,0.15-0.87,0.1-1.21-0.02c-0.36-0.12-0.64-0.3-0.9-0.5
			c-0.52-0.39-0.94-0.84-1.32-1.31c-1.51-1.9-2.5-4.06-3.28-6.28c-0.77-2.22-1.28-4.54-1.49-6.89c-0.19-2.35-0.1-4.72,0.24-7.04
			c0.68-4.64,2.17-9.13,4.26-13.31c2.1-4.15,4.86-8.14,8.74-10.91c1.92-1.39,4.1-2.43,6.38-3.07c2.27-0.65,4.67-0.96,7.06-0.7
			c2.38,0.25,4.68,1.14,6.71,2.27c1.03,0.55,2.03,1.13,3.04,1.6c0.98,0.45,2.12,0.84,2.82,0.41c0.73-0.44,1.17-1.57,1.46-2.61
			c0.3-1.07,0.5-2.2,0.66-3.33c0.32-2.26,0.52-4.57,0.72-6.86c0.18-2.29,0.29-4.58,0.12-6.84c-0.17-2.24-0.62-4.51-1.84-6.32
			c-1.21-1.82-3.11-3.12-5.16-4.02c-2.06-0.91-4.28-1.5-6.51-1.97c-2.23-0.47-4.5-0.78-6.75-0.7c-2.25,0.07-4.48,0.54-6.5,1.5
			c-2.04,0.93-3.82,2.34-5.37,3.99c-1.55,1.65-2.89,3.5-4.11,5.44c-2.43,3.88-4.34,8.08-6.04,12.35c-1.67,4.28-3.12,8.66-4.35,13.1
			c-1.22,4.43-2.18,8.94-2.58,13.5c-0.39,4.55-0.23,9.18,0.84,13.61c2.04,8.94,8.1,16.52,15.4,21.92c1.84,1.34,3.8,2.53,5.87,3.44
			c2.06,0.89,4.29,1.56,6.46,1.37c1.07-0.1,2.11-0.45,2.92-1.1c0.82-0.65,1.42-1.57,1.79-2.59c0.75-2.06,0.86-4.38,0.85-6.65
			c-0.08-4.57-0.79-9.14-1.59-13.67c-0.82-4.53-1.8-9.04-2.82-13.55c-2.01-9.01-4.28-17.98-5.88-27.11
			c-0.8-4.56-1.41-9.17-1.62-13.82c-0.21-4.64-0.04-9.34,0.98-13.92c0.52-2.28,1.23-4.53,2.18-6.67c0.95-2.15,2.15-4.17,3.51-6.08
			c2.71-3.82,6.04-7.13,9.54-10.17c3.51-3.05,7.22-5.83,10.87-8.65c3.65-2.81,7.21-5.75,10.61-8.85c3.38-3.11,6.69-6.35,9.5-9.95
			c1.38-1.8,2.62-3.74,3.22-5.88c0.59-2.13,0.58-4.45,0.09-6.62c-0.5-2.16-1.5-4.29-3.38-5.39c-1.85-1.14-4.2-1.41-6.24-0.64
			c-2.06,0.75-3.77,2.32-5.33,3.95c-1.53,1.67-2.98,3.49-4.05,5.44c-0.25,0.48-0.48,1-0.52,1.44c-0.02,0.44,0.08,0.51,0.66,0.76
			c0.31,0.13,0.48,0.22,0.67,0.23c0.2,0.02,0.46-0.02,0.71-0.07c0.52-0.11,1.06-0.3,1.59-0.49c2.13-0.8,4.22-1.76,6.13-2.98
			c0.95-0.61,1.85-1.29,2.63-2.08c0.77-0.79,1.41-1.69,1.68-2.7c0.55-2.04-0.29-4.4-1.9-5.75c-0.81-0.67-1.83-1.06-2.85-0.96
			c-1.03,0.1-2.06,0.57-3,1.15c-1.89,1.19-3.53,2.81-5.05,4.5c-1.52,1.69-2.84,3.6-4.45,5.33c-1.59,1.72-3.33,3.27-5.11,4.77
			c-3.57,2.97-7.28,5.74-10.97,8.52l-11.1,8.3c-7.39,5.54-14.68,11.2-21.64,17.26c-3.49,3.02-6.91,6.11-10.34,9.22
			c-3.41,3.12-6.93,6.13-10.21,9.35c-3.29,3.21-6.3,6.7-8.92,10.47c-2.62,3.77-4.9,7.78-7.09,11.84c-4.36,8.13-8.3,16.5-12.73,24.63
			c-4.4,8.14-9.4,15.94-13.73,24.07c-2.13,4.07-4.1,8.25-5.43,12.64c-1.32,4.35-2.02,9.01-0.95,13.42c1.11,4.4,3.59,8.36,6.07,12.22
			c2.52,3.85,5.21,7.61,7.91,11.36l16.33,22.4c10.87,14.94,21.76,29.9,31.71,45.51c4.96,7.81,9.72,15.75,14.01,23.96
			c2.11,4.11,4.26,8.25,5.58,12.76c0.66,2.25,1.02,4.59,1.11,6.93c0.1,2.34-0.02,4.66-0.17,6.97c-0.62,9.26-2.27,18.41-4.42,27.41
			c-2.17,9-4.93,17.86-8.25,26.5c-3.32,8.64-7.21,17.08-11.8,25.13c-4.59,8.04-9.89,15.72-16.14,22.58
			c-6.23,6.86-13.52,12.87-21.84,17.07c-4.16,2.08-8.56,3.72-13.11,4.69c-4.54,1.01-9.24,1.27-13.85,0.92
			c-0.02,0-0.03-0.02-0.03-0.04C59,568.82,59.01,568.8,59.03,568.8z"/>
	</g>
</g>
</svg>
